<?xml version="1.0" encoding="iso-8859-1"?>
<!-- Generator: Adobe Illustrator 22.0.1, SVG Export Plug-In . SVG Version: 6.00 Build 0)  -->
<svg xmlns="http://www.w3.org/2000/svg" version="1.1" id="Layer_1" x="0px" y="0px" viewBox="0 0 48 48"
     style="enable-background:new 0 0 48 48;" xml:space="preserve" width="48px" height="48px">
<circle style="fill:#FFB74D;" cx="13.5" cy="9.5" r="4.5"/>
    <circle style="fill:#FFB74D;" cx="34.5" cy="9.5" r="4.5"/>
    <circle style="fill:#FFCCBC;" cx="34.5" cy="9.5" r="2.5"/>
    <circle style="fill:#FFCCBC;" cx="13.5" cy="9.5" r="2.5"/>
    <ellipse style="fill:#FFB74D;" cx="32.5" cy="41" rx="3.5" ry="2"/>
    <ellipse style="fill:#FFB74D;" cx="15.5" cy="41" rx="3.5" ry="2"/>
    <path style="fill:#FFE0B2;"
          d="M37,22.917c0-3,0-3.917,0-3.917H24H11c0,0,0,0.917,0,3.917S8,30,8,33c0,4,2,8,9,8c2.016,0,4-1,7-1  s4.984,1,7,1c7,0,9-4,9-8C40,30,37,25.917,37,22.917z"/>
    <path style="fill:#FFB74D;"
          d="M36.278,13.625c-1.549-2.371-3.612-5.715-8.282-7.089l0,0l0,0C26.859,6.201,25.548,6,24,6  s-2.859,0.201-3.996,0.536c-4.67,1.375-6.733,4.719-8.282,7.089C10.354,15.719,7,18,7,22c0,3.314,2.686,6,6,6  c2.221,0,4.159-1.206,5.197-2.999C18.708,24.118,20,21,23,21c0.068,0,0.934,0.007,1,0.008C24.066,21.007,24.932,21,25,21  c3,0,4.292,3.118,4.803,4.001C30.841,26.794,32.779,28,35,28c3.314,0,6-2.686,6-6C41,18,37.646,15.719,36.278,13.625z"/>
    <circle style="fill:#FFCCBC;" cx="13" cy="21" r="2"/>
    <circle style="fill:#FFCCBC;" cx="35" cy="21" r="2"/>
    <path style="fill:#6D4C41;"
          d="M21,17.5c0,1.382-1.118,2.5-2.5,2.5S16,18.882,16,17.5s1.118-2.5,2.5-2.5S21,16.118,21,17.5z"/>
    <path style="fill:#FFFFFF;" d="M19,17c0,0.552-0.448,1-1,1s-1-0.448-1-1s0.448-1,1-1S19,16.448,19,17z"/>
    <path style="fill:#6D4C41;"
          d="M32,17.5c0,1.382-1.118,2.5-2.5,2.5S27,18.882,27,17.5s1.118-2.5,2.5-2.5S32,16.118,32,17.5z"/>
    <path style="fill:#FFFFFF;" d="M30,17c0,0.552-0.448,1-1,1s-1-0.448-1-1s0.448-1,1-1S30,16.448,30,17z"/>
    <path style="fill:#F9A825;"
          d="M27.996,6.535C26.859,6.201,25.548,6,24,6s-2.859,0.201-3.996,0.536C20.052,6.59,23.008,10.032,24,14  C24.992,10.033,27.947,6.591,27.996,6.535z"/>
    <path style="fill:#8D6E63;" d="M24,22c0,1.5-2,2-2,2s0,1,2,1s2-1,2-1S24,23.5,24,22z"/>
    <path style="fill:#6D4C41;" d="M26,21c0,0.75-1,2-2,2s-2-1.25-2-2s0.895-1,2-1S26,20.25,26,21z"/>
    <path style="fill:#FFCC80;"
          d="M21.187,28.18c-0.499-0.26-1.08-0.207-1.521,0.085c-0.055,0.037-0.863,0.543-1.079,0.649  c-0.49,0.24-1.189,0.542-2.134,0.876c-0.129,0.045-0.203,0.085-0.815,0.246C14.706,30.208,14,31.02,14,32c0,1.105,0.895,2,2,2  c3,0,5.711-3.567,5.842-3.829C22.208,29.438,21.913,28.558,21.187,28.18z"/>
    <path style="fill:#FFCC80;"
          d="M32.363,30.028c-0.488-0.153-0.687-0.201-0.815-0.247c-0.946-0.334-1.644-0.638-2.134-0.878  c-0.216-0.106-1.023-0.613-1.079-0.65c-0.441-0.293-1.022-0.346-1.521-0.086c-0.727,0.379-1.022,1.26-0.655,1.995  C26.288,30.425,29,34,32,34c1.105,0,2-0.897,2-2.004C34,31.014,33.294,30.2,32.363,30.028z"/>
</svg>
