<?xml version="1.0" encoding="iso-8859-1"?>
<!-- Generator: Adobe Illustrator 19.1.1, SVG Export Plug-In . SVG Version: 6.00 Build 0)  -->
<svg xmlns="http://www.w3.org/2000/svg" version="1.1" x="0px" y="0px" viewBox="0 0 48 48"
     style="enable-background:new 0 0 48 48;" xml:space="preserve" width="48px" height="48px">
<path style="fill:#3F51B5;"
      d="M29,22c0,0,1.283-1.104,2.667-2.276C30.686,16.416,27.627,14,24,14s-6.686,2.416-7.667,5.724  C17.717,20.896,19,22,19,22l-3,14c0,0,1.5,2,8,2s8-2,8-2L29,22z"/>
    <path style="fill:#BF360C;" d="M28,14c0,0-1-1-4-1s-4,1-4,1V5h8V14z"/>
    <path style="fill:#FFB74D;"
          d="M28.629,37.558L28,47h-8l-0.629-9.442C20.52,37.814,22.027,38,24,38S27.48,37.814,28.629,37.558z   M19,22c0,0-1.283-1.104-2.667-2.276C16.119,20.446,16,21.209,16,22v8l1.125,0.75L19,22z M31.667,19.724C30.283,20.896,29,22,29,22  l1.875,8.75L32,30v-8C32,21.209,31.881,20.446,31.667,19.724z M24,13c2.758,0,5-2.242,5-5s-2.242-5-5-5s-5,2.242-5,5  S21.242,13,24,13"/>
    <path style="fill:#FF5722;" d="M24,1c-3.038,0-7,1-7,10l3,3V7.5L26,4l2,2.5V14l3-3c0-2.012,0-9-5-9l-0.5-1H24z"/>
    <path style="fill:#FF9800;"
          d="M22,14v-1.423C22.613,12.846,23.288,13,24,13s1.387-0.154,2-0.423V14c0,0,0.042,2-2.041,2  S22,14,22,14z M23,47h2l-1-9L23,47z"/>
</svg>
