<?xml version="1.0" encoding="iso-8859-1"?>
<!-- Generator: Adobe Illustrator 19.1.1, SVG Export Plug-In . SVG Version: 6.00 Build 0)  -->
<svg xmlns="http://www.w3.org/2000/svg" version="1.1" x="0px" y="0px" viewBox="0 0 48 48"
     style="enable-background:new 0 0 48 48;" xml:space="preserve" width="48px" height="48px">
<polygon style="fill:#455A64;" points="19,29 19,32 20,47 24,47 28,47 29,32 29,29 "/>
    <path style="fill:#2196F3;" d="M16,22L16,22l3,2v7h10v-7l3-2l0,0c0-4.418-3.582-8-8-8S16,17.582,16,22"/>
    <path style="fill:#90CAF9;"
          d="M25.98,14.258C25.914,14.793,25.586,16,23.96,16c-1.623,0-1.903-1.203-1.949-1.74  c-0.671,0.172-1.309,0.424-1.9,0.752c0.124,0.561,0.384,1.229,0.936,1.816C21.549,17.363,22.463,18,23.96,18  c1.478,0,2.397-0.621,2.908-1.144c0.587-0.598,0.867-1.289,1.005-1.854C27.284,14.676,26.648,14.428,25.98,14.258z"/>
    <path style="fill:#FF9800;" d="M26.001,11h-4v3c0,0-0.124,2,1.959,2s2.041-2,2.041-2V11z"/>
    <path style="fill:#FFB74D;"
          d="M19,31v1l-3-2v-8l3,2v5V31z M29,24v5v2v1l3-2v-8L29,24z M24,13c2.758,0,5-2.242,5-5s-2.242-5-5-5  c-2.758,0-5,2.242-5,5S21.242,13,24,13"/>
    <path style="fill:#424242;"
          d="M23.781,1C21.344,1.219,19,2.93,19,6.574V8l1,1V6l6.31-2.201L28,6v3l1-1V6.797  C29,4.383,28.865,2.592,26,2l-0.485-1H23.781z"/>
    <polygon style="fill:#263238;" points="23,47 24,32 25,47 "/>
</svg>
