<?xml version="1.0" encoding="iso-8859-1"?>
<!-- Generator: Adobe Illustrator 22.1.0, SVG Export Plug-In . SVG Version: 6.00 Build 0)  -->
<svg xmlns="http://www.w3.org/2000/svg" version="1.1" id="Layer_1" x="0px" y="0px" viewBox="0 0 48 48"
     style="enable-background:new 0 0 48 48;" xml:space="preserve" width="48px" height="48px">
<g>
</g>
    <path style="fill:#424242;" d="M23,17l0-6c0-6.5-3.429-8-6-8h-1l-1,1c-3.5,0-4,5.298-4,7l0,6H23z"/>
    <path style="fill:#B71C1C;"
          d="M16,17.84L19,14c0,0,4,0,9,3c3.092,1.855,6,4,10,4s7-2,7-2s0,8-5,14c-3.076,3.691-7.111,5-10,5  C16,38,16,17.84,16,17.84z"/>
    <path style="fill:#FF3D00;" d="M21.375,14L22,18l-1,3v8h-8v-8l-1-3l0-3c0,0,1.375-1,3-1c2,0,4,0,4,0H21.375z"/>
    <polygon style="fill:#42A5F5;" points="22,29 23,45 20,45 17,32 14,45 11,45 12,29 "/>
    <path style="fill:#1E88E5;" d="M9,31c0,0,2,2,8,2s8-2,8-2l-4-6h-8L9,31z"/>
    <path style="fill:#FF9800;" d="M17.041,16C14.958,16,15,14,15,14v-2h4v2C19,14,19.124,16,17.041,16z"/>
    <polygon style="fill:#FFCA28;" points="15,18.9 17,21 19,18.9 18,18 16,18 "/>
    <path style="fill:#FFB74D;" d="M16,6l-2,2l0,3.5c0,0,0.75,1.654,3,1.654s3-1.654,3-1.654L20,8L16,6z"/>
    <path style="fill:#42A5F5;"
          d="M24.777,5.716l-0.699,4.195l-2.918,4.085l0.831,3.998l4.73-6.622c0.133-0.187,0.222-0.4,0.259-0.625  l0.752-4.512c0,0-0.296-0.643-1.434-0.784C25.161,5.31,24.777,5.716,24.777,5.716z"/>
    <path style="fill:#FFB74D;"
          d="M27.979,4.747c0.137-0.817-0.416-1.591-1.232-1.727c-0.819-0.134-1.591,0.416-1.727,1.232  l-0.244,1.463l2.955,0.519L27.979,4.747z"/>
    <path style="fill:#42A5F5;"
          d="M10.521,20.626l1.769-1.754L12,15l-4.546,4.425c-0.554,0.538-0.608,1.409-0.125,2.013l3.061,3.827  c0,0,0.721,0.477,1.686-0.311c0.965-0.788,0.642-1.581,0.642-1.581L10.521,20.626z"/>
    <path style="fill:#FFB74D;"
          d="M12.501,27c0.328,0,0.659-0.107,0.937-0.329c0.646-0.518,0.751-1.461,0.233-2.108l-0.953-1.191  l-2.328,1.892l0.939,1.173C11.625,26.808,12.061,27,12.501,27z"/>
</svg>
